#N canvas -1080 -1097 1080 1875 12;
#X obj 408 148 float;
#X obj 408 76 tgl 30 0 empty empty empty 17 7 0 10 -262144 -1 -1 0
1;
#X obj 408 118 metro 200;
#X obj 408 200 ftom;
#X obj 408 230 nbx 5 14 -1e+37 1e+37 0 0 empty empty empty 0 -8 0 10
-262144 -1 -1 87.7552 256;
#X obj 408 286 noteout;
#X obj 461 148 expr if($f1 % 2 == 0 \, $f1/2 \, ($f1 * 3) + 1);
#X text 385 51 Vanilla Collatz;
#X text 511 131 Collatz equation \, recursive;
#X text 451 202 turn freq into midi note #;
#X obj 408 176 nbx 5 14 -1e+37 1e+37 0 0 empty empty empty 0 -8 0 10
-262144 -1 -1 1300 256;
#X text 474 175 freq;
#X text 475 229 midi note value;
#X text 535 258 play note;
#X text 256 119 starting value;
#X text 189 149 float stores the current value;
#X obj 408 256 makenote 60 250;
#X obj 253 383 tgl 30 0 empty empty empty 17 7 0 10 -262144 -1 -1 0
1;
#X obj 221 457 metro 200;
#X obj 176 585 ftom;
#X obj 176 615 nbx 5 14 -1e+37 1e+37 0 0 empty empty empty 0 -8 0 10
-262144 -1 -1 96.6494 256;
#X obj 175 685 noteout;
#X obj 176 561 nbx 5 14 -1e+37 1e+37 0 0 empty empty empty 0 -8 0 10
-262144 -1 -1 2173 256;
#X obj 176 641 makenote 60 250;
#X obj 176 530 expr $f1 + $f2;
#X msg 299 432 1423;
#X msg 176 457 5187;
#X text 55 456 starting value 1;
#X text 178 431 starting value 2;
#X text 175 354 Collatz + Collatz;
#X obj 632 391 tgl 30 0 empty empty empty 17 7 0 10 -262144 -1 -1 0
1;
#X obj 729 511 ftom;
#X obj 730 539 nbx 5 14 -1e+37 1e+37 0 0 empty empty empty 0 -8 0 10
-262144 -1 -1 15.4868 256;
#X obj 730 668 noteout;
#X obj 730 565 makenote 60 250;
#X msg 791 648 17;
#X obj 791 618 loadbang;
#N canvas 0 23 1280 755 collatz_eq 0;
#X obj 192 82 expr if($f1 % 2 == 0 \, $f1/2 \, ($f1 * 3) + 1);
#X obj 139 115 outlet;
#X obj 138 82 float;
#X obj 143 52 inlet;
#X obj 212 50 inlet;
#X connect 0 0 2 1;
#X connect 2 0 0 0;
#X connect 2 0 1 0;
#X connect 3 0 2 0;
#X connect 4 0 2 1;
#X restore 299 465 pd collatz_eq;
#N canvas 0 23 1280 755 collatz_eq 0;
#X obj 192 82 expr if($f1 % 2 == 0 \, $f1/2 \, ($f1 * 3) + 1);
#X obj 139 115 outlet;
#X obj 138 82 float;
#X obj 143 52 inlet;
#X obj 212 50 inlet;
#X connect 0 0 2 1;
#X connect 2 0 0 0;
#X connect 2 0 1 0;
#X connect 3 0 2 0;
#X connect 4 0 2 1;
#X restore 175 494 pd collatz_eq;
#N canvas 0 23 1280 755 collatz_eq 0;
#X obj 192 82 expr if($f1 % 2 == 0 \, $f1/2 \, ($f1 * 3) + 1);
#X obj 139 115 outlet;
#X obj 138 82 float;
#X obj 143 52 inlet;
#X obj 212 50 inlet;
#X connect 0 0 2 1;
#X connect 2 0 0 0;
#X connect 2 0 1 0;
#X connect 3 0 2 0;
#X connect 4 0 2 1;
#X restore 48 80 pd collatz_eq;
#X text 18 59 subpatch with float and collatz equation;
#N canvas 0 23 1280 755 collatz_eq 0;
#X obj 192 82 expr if($f1 % 2 == 0 \, $f1/2 \, ($f1 * 3) + 1);
#X obj 139 115 outlet;
#X obj 138 82 float;
#X obj 143 52 inlet;
#X obj 212 50 inlet;
#X connect 0 0 2 1;
#X connect 2 0 0 0;
#X connect 2 0 1 0;
#X connect 3 0 2 0;
#X connect 4 0 2 1;
#X restore 730 479 pd collatz_eq;
#X obj 552 517 ftom;
#X obj 553 545 nbx 5 14 -1e+37 1e+37 0 0 empty empty empty 0 -8 0 10
-262144 -1 -1 15.4868 256;
#X obj 553 674 noteout;
#X obj 553 571 makenote 60 250;
#N canvas 0 23 1280 755 collatz_eq 0;
#X obj 192 82 expr if($f1 % 2 == 0 \, $f1/2 \, ($f1 * 3) + 1);
#X obj 139 115 outlet;
#X obj 138 82 float;
#X obj 143 52 inlet;
#X obj 212 50 inlet;
#X connect 0 0 2 1;
#X connect 2 0 0 0;
#X connect 2 0 1 0;
#X connect 3 0 2 0;
#X connect 4 0 2 1;
#X restore 553 485 pd collatz_eq;
#X text 583 368 Double Collatz;
#X text 829 648 port 17 is the 2nd midi channel;
#X obj 334 1032 tgl 30 0 empty empty empty 17 7 0 10 -262144 -1 -1
0 1;
#X obj 334 1083 metro 200;
#X obj 333 1145 ftom;
#X obj 334 1173 nbx 5 14 -1e+37 1e+37 0 0 empty empty empty 0 -8 0
10 -262144 -1 -1 97.7078 256;
#X obj 334 1302 noteout;
#X obj 334 1260 makenote 60 250;
#N canvas 0 23 1280 755 collatz_eq 0;
#X obj 192 82 expr if($f1 % 2 == 0 \, $f1/2 \, ($f1 * 3) + 1);
#X obj 139 115 outlet;
#X obj 138 82 float;
#X obj 143 52 inlet;
#X obj 212 50 inlet;
#X connect 0 0 2 1;
#X connect 2 0 0 0;
#X connect 2 0 1 0;
#X connect 3 0 2 0;
#X connect 4 0 2 1;
#X restore 333 1124 pd collatz_eq;
#X msg 289 1084 2310;
#X obj 371 1199 expr if($f1 < 0 \, 1 \, 0);
#X obj 436 1074 nbx 5 14 -1e+37 1e+37 0 0 empty empty empty 0 -8 0
10 -262144 -1 -1 2310 256;
#X obj 436 1099 expr $f1 + $f2;
#X obj 457 1135 nbx 5 14 -1e+37 1e+37 0 0 empty empty empty 0 -8 0
10 -262144 -1 -1 2310 256;
#X obj 436 1047 bng 15 250 50 0 empty empty empty 17 7 0 10 -262144
-1 -1;
#X obj 554 454 metro 200;
#X obj 730 449 metro 200;
#X msg 508 456 3000;
#X msg 685 450 3000;
#X msg 363 119 3000;
#X connect 0 0 6 0;
#X connect 0 0 10 0;
#X connect 1 0 2 0;
#X connect 1 0 66 0;
#X connect 2 0 0 0;
#X connect 3 0 4 0;
#X connect 4 0 16 0;
#X connect 6 0 0 1;
#X connect 10 0 3 0;
#X connect 16 0 5 0;
#X connect 16 1 5 1;
#X connect 17 0 18 0;
#X connect 17 0 26 0;
#X connect 17 0 25 0;
#X connect 18 0 37 0;
#X connect 18 0 38 0;
#X connect 19 0 20 0;
#X connect 20 0 23 0;
#X connect 22 0 19 0;
#X connect 23 0 21 0;
#X connect 23 1 21 1;
#X connect 24 0 22 0;
#X connect 25 0 37 1;
#X connect 26 0 38 1;
#X connect 30 0 65 0;
#X connect 30 0 64 0;
#X connect 30 0 62 0;
#X connect 30 0 63 0;
#X connect 31 0 32 0;
#X connect 32 0 34 0;
#X connect 34 0 33 0;
#X connect 34 1 33 1;
#X connect 35 0 33 2;
#X connect 36 0 35 0;
#X connect 37 0 24 1;
#X connect 38 0 24 0;
#X connect 41 0 31 0;
#X connect 42 0 43 0;
#X connect 43 0 45 0;
#X connect 45 0 44 0;
#X connect 45 1 44 1;
#X connect 46 0 42 0;
#X connect 49 0 56 0;
#X connect 49 0 50 0;
#X connect 50 0 55 0;
#X connect 51 0 52 0;
#X connect 52 0 54 0;
#X connect 52 0 57 0;
#X connect 54 0 53 0;
#X connect 54 1 53 1;
#X connect 55 0 51 0;
#X connect 56 0 55 1;
#X connect 56 0 58 0;
#X connect 57 0 59 1;
#X connect 58 0 59 0;
#X connect 59 0 55 0;
#X connect 59 0 60 0;
#X connect 61 0 58 0;
#X connect 62 0 46 0;
#X connect 63 0 41 0;
#X connect 64 0 46 1;
#X connect 65 0 41 1;
#X connect 66 0 0 1;
