#N canvas 0 23 524 755 12;
#X declare purest_json;
#X obj 50 97 bng 15 250 50 0 empty empty empty 17 7 0 10 -262144 -1
-1;
#X floatatom 50 197 5 0 0 0 - - -;
#X obj 50 51 tgl 15 0 empty empty empty 17 7 0 10 -262144 -1 -1 0 1
;
#X obj 50 74 metro 500;
#X obj 50 314 dac~;
#X floatatom 50 267 0 0 0 0 - - -;
#X msg 209 25 \; pd dsp 1;
#X msg 210 67 \; pd dsp 0;
#X obj 50 244 mtof;
#X text 280 31 <- click to turn on;
#X text 280 73 <- click to turn off;
#X obj 50 289 osc~;
#X obj 50 221 + 50;
#X obj 50 24 declare purest_json;
#X obj 50 146 purest_json/rest;
#X obj 50 174 purest_json/json-decode;
#X msg 50 118 GET http://127.0.0.1:7355/bart;
#X obj 240 358 bng 15 250 50 0 empty empty empty 17 7 0 10 -262144
-1 -1;
#X floatatom 240 448 5 0 0 0 - - -;
#X obj 240 316 tgl 15 0 empty empty empty 17 7 0 10 -262144 -1 -1 0
1;
#X obj 240 335 metro 500;
#X obj 240 570 dac~;
#X floatatom 240 520 0 0 0 0 - - -;
#X obj 240 495 mtof;
#X obj 240 545 osc~;
#X obj 240 472 + 50;
#X obj 240 402 purest_json/rest;
#X obj 240 426 purest_json/json-decode;
#X msg 240 378 GET http://127.0.0.1:7355/sum?a=50&b=7;
#X connect 0 0 16 0;
#X connect 1 0 12 0;
#X connect 2 0 3 0;
#X connect 3 0 0 0;
#X connect 5 0 11 0;
#X connect 8 0 5 0;
#X connect 12 0 8 0;
#X connect 14 0 15 0;
#X connect 15 0 1 0;
#X connect 16 0 14 0;
#X connect 17 0 28 0;
#X connect 18 0 25 0;
#X connect 19 0 20 0;
#X connect 20 0 17 0;
#X connect 22 0 24 0;
#X connect 23 0 22 0;
#X connect 24 0 21 0;
#X connect 24 0 21 1;
#X connect 25 0 23 0;
#X connect 26 0 27 0;
#X connect 27 0 18 0;
#X connect 28 0 26 0;
